<svg width="368" height="366" viewBox="0 0 368 366" fill="none" xmlns="http://www.w3.org/2000/svg">
<path d="M73.5532 28.3091C193.418 28.3091 290.397 40.5161 351.421 90.1875C450.672 170.974 42.806 151.958 53.5758 226.684C65.2039 307.364 325.995 365 325.995 365" stroke="#222221" stroke-width="2" stroke-dasharray="12 12"/>
<path d="M61.138 17.28C60.1767 17.28 59.346 17.0747 58.646 16.664C57.9553 16.244 57.428 15.6747 57.064 14.956C56.7 14.2373 56.518 13.4253 56.518 12.52C56.518 11.5867 56.7187 10.7373 57.12 9.972C57.5213 9.19733 58.072 8.59067 58.772 8.152C59.4813 7.704 60.27 7.48 61.138 7.48C61.9593 7.48 62.6453 7.58733 63.196 7.802C63.7467 8.00733 64.1667 8.278 64.456 8.614C64.624 8.82867 64.7267 9.09467 64.764 9.412C64.8013 9.72933 64.82 10.1727 64.82 10.742H64.4C64.2227 9.88333 63.896 9.23 63.42 8.782C62.944 8.334 62.3233 8.11 61.558 8.11C60.606 8.11 59.8547 8.446 59.304 9.118C58.7533 9.79 58.478 10.924 58.478 12.52C58.478 13.7053 58.73 14.69 59.234 15.474C59.738 16.258 60.5127 16.65 61.558 16.65C62.2113 16.65 62.8087 16.4773 63.35 16.132C63.9007 15.7867 64.344 15.292 64.68 14.648L65.17 15.026C64.722 15.81 64.1807 16.384 63.546 16.748C62.9113 17.1027 62.1087 17.28 61.138 17.28ZM68.75 8.39H67.756C67.2333 8.39 66.832 8.52067 66.552 8.782C66.2813 9.04333 66.146 9.47267 66.146 10.07H65.726V8.88C65.726 8.13333 66.1226 7.76 66.916 7.76H73.496V8.39H70.57V17H68.75V8.39ZM81.376 17.056C80.788 17.056 80.256 16.9347 79.78 16.692C79.304 16.44 78.9167 15.9547 78.618 15.236L78.296 14.452H74.572L73.424 17H72.696L76.826 7.76H77.456L80.592 15.236C80.9467 16.104 81.432 16.5707 82.048 16.636V16.986C81.88 17.0327 81.656 17.056 81.376 17.056ZM74.866 13.822H78.03L76.49 10.168L74.866 13.822ZM93.5064 17.63C92.4984 17.63 91.7704 17.3967 91.3224 16.93C90.8838 16.454 90.6644 15.684 90.6644 14.62V9.664L87.5984 17H87.1364L83.3844 9.384V17H82.6844V7.76H84.3924L87.7804 14.634L90.6504 7.76H92.4844V14.62C92.4844 15.4973 92.5591 16.1413 92.7084 16.552C92.8578 16.9627 93.1238 17.2053 93.5064 17.28V17.63ZM95.1191 9.58C95.1191 9.104 95.0537 8.754 94.9231 8.53C94.7924 8.29667 94.5311 8.18 94.1391 8.18H93.9991V7.76H100.145C100.938 7.76 101.335 8.13333 101.335 8.88V10.07H100.915C100.915 9.482 100.766 9.05733 100.467 8.796C100.178 8.52533 99.7437 8.39 99.1651 8.39H96.9391V11.68H98.1991C99.4217 11.68 100.416 11.8713 101.181 12.254C101.946 12.6273 102.329 13.3227 102.329 14.34C102.329 15.3573 101.946 16.0573 101.181 16.44C100.416 16.8133 99.4217 17 98.1991 17H95.1191V9.58ZM97.9891 16.44C98.8291 16.44 99.4357 16.2767 99.8091 15.95C100.182 15.614 100.369 15.0773 100.369 14.34C100.369 13.6027 100.182 13.0707 99.8091 12.744C99.4357 12.408 98.8291 12.24 97.9891 12.24H97.9191C97.6391 12.24 97.4057 12.2633 97.2191 12.31L96.9391 12.38V16.3C97.0417 16.3373 97.1351 16.3607 97.2191 16.37C97.4244 16.4167 97.6577 16.44 97.9191 16.44H97.9891ZM104.664 16.636C105.158 16.636 105.588 16.5707 105.952 16.44C106.316 16.3 106.582 16.0433 106.75 15.67L106.848 15.46L103.978 9.58C103.772 9.12267 103.52 8.76333 103.222 8.502C102.932 8.23133 102.606 8.07733 102.242 8.04V7.76H103.642C104.155 7.76 104.608 7.9 105 8.18C105.401 8.46 105.709 8.83333 105.924 9.3L107.856 13.248L110.334 7.76H111.244L107.66 15.67C107.464 16.1367 107.17 16.5007 106.778 16.762C106.386 17.014 105.914 17.14 105.364 17.14H104.664V16.636ZM112.058 17.21C111.75 17.21 111.47 17.168 111.218 17.084V16.65C111.675 16.5567 112.063 16.3093 112.38 15.908C112.697 15.5067 112.949 14.8067 113.136 13.808C113.332 12.8 113.43 11.3907 113.43 9.58C113.43 9.104 113.365 8.754 113.234 8.53C113.103 8.29667 112.842 8.18 112.45 8.18H112.31V7.76H119.8V17H117.98V8.39H114.956V9.58C114.956 12.38 114.699 14.354 114.186 15.502C113.682 16.6407 112.973 17.21 112.058 17.21Z" fill="black"/>
<path d="M206.33 108.58C206.33 108.104 206.265 107.754 206.134 107.53C206.003 107.297 205.742 107.18 205.35 107.18H205.21V106.76H211.356C212.149 106.76 212.546 107.133 212.546 107.88V109.07H212.126C212.126 108.482 211.977 108.057 211.678 107.796C211.389 107.525 210.955 107.39 210.376 107.39H208.15V110.68H209.41C210.633 110.68 211.627 110.871 212.392 111.254C213.157 111.627 213.54 112.323 213.54 113.34C213.54 114.357 213.157 115.057 212.392 115.44C211.627 115.813 210.633 116 209.41 116H206.33V108.58ZM209.2 115.44C210.04 115.44 210.647 115.277 211.02 114.95C211.393 114.614 211.58 114.077 211.58 113.34C211.58 112.603 211.393 112.071 211.02 111.744C210.647 111.408 210.04 111.24 209.2 111.24H209.13C208.85 111.24 208.617 111.263 208.43 111.31L208.15 111.38V115.3C208.253 115.337 208.346 115.361 208.43 115.37C208.635 115.417 208.869 115.44 209.13 115.44H209.2ZM219.025 116.28C218.119 116.28 217.312 116.065 216.603 115.636C215.903 115.207 215.361 114.619 214.979 113.872C214.596 113.125 214.405 112.295 214.405 111.38C214.405 110.465 214.596 109.635 214.979 108.888C215.361 108.141 215.903 107.553 216.603 107.124C217.312 106.695 218.119 106.48 219.025 106.48C219.93 106.48 220.733 106.695 221.433 107.124C222.133 107.553 222.674 108.141 223.057 108.888C223.439 109.635 223.631 110.465 223.631 111.38C223.631 112.295 223.439 113.125 223.057 113.872C222.674 114.619 222.133 115.207 221.433 115.636C220.733 116.065 219.93 116.28 219.025 116.28ZM219.025 115.65C219.874 115.65 220.532 115.281 220.999 114.544C221.465 113.797 221.699 112.743 221.699 111.38C221.699 110.017 221.465 108.967 220.999 108.23C220.532 107.483 219.874 107.11 219.025 107.11C218.175 107.11 217.517 107.483 217.051 108.23C216.593 108.967 216.365 110.017 216.365 111.38C216.365 112.743 216.593 113.797 217.051 114.544C217.517 115.281 218.175 115.65 219.025 115.65ZM224.404 116.21C224.096 116.21 223.816 116.168 223.564 116.084V115.65C224.021 115.557 224.408 115.309 224.726 114.908C225.043 114.507 225.295 113.807 225.482 112.808C225.678 111.8 225.776 110.391 225.776 108.58C225.776 108.104 225.71 107.754 225.58 107.53C225.449 107.297 225.188 107.18 224.796 107.18H224.656V106.76H232.146V116H230.326V107.39H227.302V108.58C227.302 111.38 227.045 113.354 226.532 114.502C226.028 115.641 225.318 116.21 224.404 116.21ZM234.508 108.58C234.508 108.104 234.442 107.754 234.312 107.53C234.181 107.297 233.92 107.18 233.528 107.18H233.388V106.76H235.068C235.404 106.76 235.66 106.816 235.838 106.928C236.015 107.04 236.141 107.227 236.216 107.488C236.29 107.74 236.328 108.104 236.328 108.58V110.54H237.588C238.773 110.54 239.758 110.745 240.542 111.156C241.326 111.567 241.718 112.271 241.718 113.27C241.718 114.269 241.326 114.973 240.542 115.384C239.758 115.795 238.773 116 237.588 116H234.508V108.58ZM237.378 115.44C238.199 115.44 238.801 115.258 239.184 114.894C239.566 114.53 239.758 113.989 239.758 113.27C239.758 112.551 239.566 112.01 239.184 111.646C238.801 111.282 238.199 111.1 237.378 111.1H237.308C237.028 111.1 236.794 111.123 236.608 111.17L236.328 111.24V115.3C236.43 115.337 236.524 115.361 236.608 115.37C236.813 115.417 237.046 115.44 237.308 115.44H237.378ZM243.203 108.58C243.203 108.104 243.138 107.754 243.007 107.53C242.876 107.297 242.615 107.18 242.223 107.18H242.083V106.76H243.763C244.099 106.76 244.356 106.816 244.533 106.928C244.71 107.04 244.836 107.227 244.911 107.488C244.986 107.74 245.023 108.104 245.023 108.58V115.37H247.753V106.76H249.573V115.37H252.303V106.76H254.123V116H243.203V108.58ZM260.218 116.28C259.313 116.28 258.505 116.065 257.796 115.636C257.096 115.207 256.555 114.619 256.172 113.872C255.789 113.125 255.598 112.295 255.598 111.38C255.598 110.465 255.789 109.635 256.172 108.888C256.555 108.141 257.096 107.553 257.796 107.124C258.505 106.695 259.313 106.48 260.218 106.48C261.123 106.48 261.926 106.695 262.626 107.124C263.326 107.553 263.867 108.141 264.25 108.888C264.633 109.635 264.824 110.465 264.824 111.38C264.824 112.295 264.633 113.125 264.25 113.872C263.867 114.619 263.326 115.207 262.626 115.636C261.926 116.065 261.123 116.28 260.218 116.28ZM260.218 115.65C261.067 115.65 261.725 115.281 262.192 114.544C262.659 113.797 262.892 112.743 262.892 111.38C262.892 110.017 262.659 108.967 262.192 108.23C261.725 107.483 261.067 107.11 260.218 107.11C259.369 107.11 258.711 107.483 258.244 108.23C257.787 108.967 257.558 110.017 257.558 111.38C257.558 112.743 257.787 113.797 258.244 114.544C258.711 115.281 259.369 115.65 260.218 115.65ZM266.596 108.58C266.596 108.104 266.53 107.754 266.4 107.53C266.269 107.297 266.008 107.18 265.616 107.18H265.476V106.76H267.156C267.492 106.76 267.748 106.816 267.926 106.928C268.103 107.04 268.229 107.227 268.304 107.488C268.378 107.74 268.416 108.104 268.416 108.58V114.18L272.476 106.76H274.156V116H272.336V108.58L268.276 116H266.596V108.58ZM270.362 106.13C269.914 106.13 269.517 106.013 269.172 105.78C268.826 105.537 268.565 105.215 268.388 104.814L268.78 104.52C268.938 104.716 269.148 104.884 269.41 105.024C269.68 105.155 269.998 105.22 270.362 105.22C270.726 105.22 271.038 105.155 271.3 105.024C271.57 104.884 271.785 104.716 271.944 104.52L272.336 104.814C272.158 105.215 271.897 105.537 271.552 105.78C271.206 106.013 270.81 106.13 270.362 106.13ZM280.021 108.58C280.021 108.104 279.956 107.754 279.825 107.53C279.695 107.297 279.433 107.18 279.041 107.18H278.901V106.76H285.047C285.841 106.76 286.237 107.133 286.237 107.88V109.07H285.817C285.817 108.482 285.668 108.057 285.369 107.796C285.08 107.525 284.646 107.39 284.067 107.39H281.841V110.68H283.101C284.324 110.68 285.318 110.871 286.083 111.254C286.849 111.627 287.231 112.323 287.231 113.34C287.231 114.357 286.849 115.057 286.083 115.44C285.318 115.813 284.324 116 283.101 116H280.021V108.58ZM282.891 115.44C283.731 115.44 284.338 115.277 284.711 114.95C285.085 114.614 285.271 114.077 285.271 113.34C285.271 112.603 285.085 112.071 284.711 111.744C284.338 111.408 283.731 111.24 282.891 111.24H282.821C282.541 111.24 282.308 111.263 282.121 111.31L281.841 111.38V115.3C281.944 115.337 282.037 115.361 282.121 115.37C282.327 115.417 282.56 115.44 282.821 115.44H282.891ZM296.37 116.056C295.782 116.056 295.25 115.935 294.774 115.692C294.298 115.44 293.911 114.955 293.612 114.236L293.29 113.452H289.566L288.418 116H287.69L291.82 106.76H292.45L295.586 114.236C295.941 115.104 296.426 115.571 297.042 115.636V115.986C296.874 116.033 296.65 116.056 296.37 116.056ZM289.86 112.822H293.024L291.484 109.168L289.86 112.822ZM300.563 116.28C299.723 116.28 299.009 116.126 298.421 115.818C297.842 115.51 297.338 115.034 296.909 114.39L297.329 114.04C297.702 114.535 298.113 114.927 298.561 115.216C299.018 115.505 299.569 115.65 300.213 115.65C300.838 115.65 301.351 115.477 301.753 115.132C302.163 114.787 302.369 114.306 302.369 113.69C302.369 113.027 302.154 112.514 301.725 112.15C301.305 111.777 300.726 111.59 299.989 111.59H298.799V110.96H299.989C300.334 110.96 300.665 110.885 300.983 110.736C301.309 110.587 301.575 110.367 301.781 110.078C301.986 109.779 302.089 109.42 302.089 109C302.089 108.58 301.995 108.23 301.809 107.95C301.622 107.661 301.389 107.451 301.109 107.32C300.838 107.18 300.563 107.11 300.283 107.11C299.657 107.11 299.125 107.315 298.687 107.726C298.248 108.137 297.94 108.701 297.763 109.42H297.329C297.329 108.888 297.347 108.477 297.385 108.188C297.422 107.899 297.52 107.656 297.679 107.46C297.912 107.171 298.285 106.937 298.799 106.76C299.321 106.573 299.839 106.48 300.353 106.48C301.398 106.48 302.261 106.653 302.943 106.998C303.633 107.343 303.979 107.987 303.979 108.93C303.979 109.406 303.787 109.859 303.405 110.288C303.022 110.717 302.495 111.011 301.823 111.17C302.672 111.273 303.302 111.557 303.713 112.024C304.123 112.491 304.329 113.023 304.329 113.62C304.329 114.255 304.142 114.773 303.769 115.174C303.395 115.566 302.919 115.846 302.341 116.014C301.771 116.191 301.179 116.28 300.563 116.28ZM313.474 116.056C312.886 116.056 312.354 115.935 311.878 115.692C311.402 115.44 311.014 114.955 310.716 114.236L310.394 113.452H306.67L305.522 116H304.794L308.924 106.76H309.554L312.69 114.236C313.044 115.104 313.53 115.571 314.146 115.636V115.986C313.978 116.033 313.754 116.056 313.474 116.056ZM306.964 112.822H310.128L308.588 109.168L306.964 112.822ZM315.076 108.58C315.076 108.104 315.011 107.754 314.88 107.53C314.749 107.297 314.488 107.18 314.096 107.18H313.956V106.76H317.806C318.767 106.76 319.635 106.951 320.41 107.334C321.194 107.707 321.586 108.454 321.586 109.574C321.586 110.302 321.381 110.867 320.97 111.268C320.569 111.669 320.116 111.935 319.612 112.066C319.108 112.197 318.646 112.262 318.226 112.262H316.896V116H315.076V108.58ZM317.736 111.702C318.287 111.702 318.739 111.534 319.094 111.198C319.449 110.862 319.626 110.297 319.626 109.504C319.626 108.72 319.449 108.16 319.094 107.824C318.749 107.488 318.319 107.32 317.806 107.32C317.535 107.32 317.325 107.339 317.176 107.376L316.896 107.418V111.702H317.736Z" fill="black"/>
<path d="M8.834 173.395C8.246 173.395 7.68133 173.279 7.14 173.045C6.608 172.803 6.034 172.359 5.418 171.715L3.164 169.363V173.255H1.344L1.33 165.835C1.33 165.359 1.26467 165.009 1.134 164.785C1.00333 164.552 0.742 164.435 0.35 164.435H0.21V164.015H1.89C2.21667 164.015 2.46867 164.071 2.646 164.183C2.83267 164.295 2.96333 164.482 3.038 164.743C3.122 165.005 3.164 165.369 3.164 165.835V168.495L5.586 165.485C5.93133 165.037 6.3 164.683 6.692 164.421C7.09333 164.151 7.55067 164.015 8.064 164.015H9.044V164.505C8.46533 164.505 7.966 164.58 7.546 164.729C7.13533 164.869 6.78067 165.126 6.482 165.499L4.396 168.075L7.63 171.435C7.97533 171.818 8.36267 172.154 8.792 172.443C9.23067 172.723 9.58533 172.882 9.856 172.919V173.255C9.576 173.349 9.23533 173.395 8.834 173.395ZM18.499 173.311C17.911 173.311 17.379 173.19 16.903 172.947C16.427 172.695 16.0397 172.21 15.741 171.491L15.419 170.707H11.695L10.547 173.255H9.81903L13.949 164.015H14.579L17.715 171.491C18.0697 172.359 18.555 172.826 19.171 172.891V173.241C19.003 173.288 18.779 173.311 18.499 173.311ZM11.989 170.077H15.153L13.613 166.423L11.989 170.077ZM20.1015 165.835C20.1015 165.359 20.0362 165.009 19.9055 164.785C19.7748 164.552 19.5135 164.435 19.1215 164.435H18.9815V164.015H27.3815V173.255H25.5615V164.645H21.9215V173.255H20.1015V165.835ZM29.7538 165.835C29.7538 165.359 29.6885 165.009 29.5578 164.785C29.4272 164.552 29.1658 164.435 28.7738 164.435H28.6338V164.015H37.0338V173.255H35.2138V164.645H31.5738V173.255H29.7538V165.835ZM46.6768 173.311C46.0888 173.311 45.5568 173.19 45.0808 172.947C44.6048 172.695 44.2174 172.21 43.9188 171.491L43.5968 170.707H39.8728L38.7248 173.255H37.9968L42.1268 164.015H42.7568L45.8928 171.491C46.2474 172.359 46.7328 172.826 47.3488 172.891V173.241C47.1808 173.288 46.9568 173.311 46.6768 173.311ZM40.1668 170.077H43.3308L41.7908 166.423L40.1668 170.077ZM46.9352 173.115C46.9352 172.975 46.9819 172.859 47.0752 172.765C47.1686 172.672 47.2852 172.625 47.4252 172.625H47.9152C48.3446 171.692 48.6479 170.67 48.8252 169.559C49.0119 168.439 49.1052 167.198 49.1052 165.835C49.1052 165.359 49.0399 165.009 48.9092 164.785C48.7786 164.552 48.5172 164.435 48.1252 164.435H47.9852V164.015H55.3912V172.625H55.8812C56.0212 172.625 56.1379 172.672 56.2312 172.765C56.3246 172.859 56.3712 172.975 56.3712 173.115V175.831H55.6712C55.5966 175.169 55.4846 174.651 55.3352 174.277C55.1952 173.904 55.0132 173.638 54.7892 173.479C54.5652 173.33 54.2759 173.255 53.9212 173.255H49.3852C49.0306 173.255 48.7412 173.33 48.5172 173.479C48.2932 173.638 48.1066 173.904 47.9572 174.277C47.8172 174.651 47.7099 175.169 47.6352 175.831H46.9352V173.115ZM53.5712 172.625V164.645H50.4912C50.4912 166.568 50.4072 168.141 50.2392 169.363C50.0712 170.586 49.7819 171.673 49.3712 172.625H53.5712ZM61.8079 173.535C60.9026 173.535 60.0953 173.321 59.3859 172.891C58.6859 172.462 58.1446 171.874 57.7619 171.127C57.3793 170.381 57.1879 169.55 57.1879 168.635C57.1879 167.721 57.3793 166.89 57.7619 166.143C58.1446 165.397 58.6859 164.809 59.3859 164.379C60.0953 163.95 60.9026 163.735 61.8079 163.735C62.7133 163.735 63.5159 163.95 64.2159 164.379C64.9159 164.809 65.4573 165.397 65.8399 166.143C66.2226 166.89 66.4139 167.721 66.4139 168.635C66.4139 169.55 66.2226 170.381 65.8399 171.127C65.4573 171.874 64.9159 172.462 64.2159 172.891C63.5159 173.321 62.7133 173.535 61.8079 173.535ZM61.8079 172.905C62.6573 172.905 63.3153 172.537 63.7819 171.799C64.2486 171.053 64.4819 169.998 64.4819 168.635C64.4819 167.273 64.2486 166.223 63.7819 165.485C63.3153 164.739 62.6573 164.365 61.8079 164.365C60.9586 164.365 60.3006 164.739 59.8339 165.485C59.3766 166.223 59.1479 167.273 59.1479 168.635C59.1479 169.998 59.3766 171.053 59.8339 171.799C60.3006 172.537 60.9586 172.905 61.8079 172.905ZM75.6895 173.395C75.1015 173.395 74.5368 173.279 73.9955 173.045C73.4635 172.803 72.8895 172.359 72.2735 171.715L70.0195 169.363V173.255H68.1995L68.1855 165.835C68.1855 165.359 68.1201 165.009 67.9895 164.785C67.8588 164.552 67.5975 164.435 67.2055 164.435H67.0655V164.015H68.7455C69.0721 164.015 69.3241 164.071 69.5015 164.183C69.6881 164.295 69.8188 164.482 69.8935 164.743C69.9775 165.005 70.0195 165.369 70.0195 165.835V168.495L72.4415 165.485C72.7868 165.037 73.1555 164.683 73.5475 164.421C73.9488 164.151 74.4061 164.015 74.9195 164.015H75.8995V164.505C75.3208 164.505 74.8215 164.58 74.4015 164.729C73.9908 164.869 73.6361 165.126 73.3375 165.499L71.2515 168.075L74.4855 171.435C74.8308 171.818 75.2181 172.154 75.6475 172.443C76.0861 172.723 76.4408 172.882 76.7115 172.919V173.255C76.4315 173.349 76.0908 173.395 75.6895 173.395ZM77.8925 165.835C77.8925 165.359 77.8272 165.009 77.6965 164.785C77.5658 164.552 77.3045 164.435 76.9125 164.435H76.7725V164.015H78.4525C78.7885 164.015 79.0452 164.071 79.2225 164.183C79.3998 164.295 79.5258 164.482 79.6005 164.743C79.6752 164.995 79.7125 165.359 79.7125 165.835V171.435L83.7725 164.015H85.4525V173.255H83.6325V165.835L79.5725 173.255H77.8925V165.835ZM87.5663 173.479C87.3983 173.479 87.2163 173.465 87.0203 173.437C86.8243 173.409 86.6889 173.377 86.6143 173.339V172.989C86.8663 172.943 87.1323 172.807 87.4123 172.583C87.6923 172.359 88.0049 171.981 88.3503 171.449L89.6803 169.335C89.0829 169.205 88.5556 168.92 88.0983 168.481C87.6409 168.043 87.4123 167.483 87.4123 166.801C87.4123 165.775 87.7949 165.056 88.5603 164.645C89.3349 164.225 90.2123 164.015 91.1923 164.015H95.0563V164.435H94.9163C94.5243 164.435 94.2629 164.552 94.1323 164.785C94.0016 165.009 93.9363 165.359 93.9363 165.835V173.255H92.1023V169.447H91.4863L90.2263 171.449C89.7596 172.187 89.3163 172.709 88.8963 173.017C88.4763 173.325 88.0329 173.479 87.5663 173.479ZM92.1023 168.887V164.673L91.8223 164.631C91.6729 164.594 91.4629 164.575 91.1923 164.575C90.9029 164.575 90.6183 164.659 90.3383 164.827C90.0583 164.986 89.8249 165.229 89.6383 165.555C89.4609 165.882 89.3723 166.274 89.3723 166.731C89.3723 167.207 89.4609 167.609 89.6383 167.935C89.8249 168.253 90.0629 168.491 90.3523 168.649C90.6416 168.808 90.9449 168.887 91.2623 168.887H92.1023Z" fill="black"/>
<path d="M109.39 234.084C109.39 233.608 109.324 233.258 109.194 233.034C109.063 232.8 108.802 232.684 108.41 232.684H108.27V232.264H116.67V241.504H114.85V232.894H111.21V241.504H109.39V234.084ZM126.313 241.56C125.725 241.56 125.193 241.438 124.717 241.196C124.241 240.944 123.853 240.458 123.555 239.74L123.233 238.956H119.509L118.361 241.504H117.633L121.763 232.264H122.393L125.529 239.74C125.883 240.608 126.369 241.074 126.985 241.14V241.49C126.817 241.536 126.593 241.56 126.313 241.56ZM119.803 238.326H122.967L121.427 234.672L119.803 238.326ZM138.443 242.134C137.435 242.134 136.707 241.9 136.259 241.434C135.821 240.958 135.601 240.188 135.601 239.124V234.168L132.535 241.504H132.073L128.321 233.888V241.504H127.621V232.264H129.329L132.717 239.138L135.587 232.264H137.421V239.124C137.421 240.001 137.496 240.645 137.645 241.056C137.795 241.466 138.061 241.709 138.443 241.784V242.134ZM140.714 241.14C141.208 241.14 141.638 241.074 142.002 240.944C142.366 240.804 142.632 240.547 142.8 240.174L142.898 239.964L140.028 234.084C139.822 233.626 139.57 233.267 139.272 233.006C138.982 232.735 138.656 232.581 138.292 232.544V232.264H139.692C140.205 232.264 140.658 232.404 141.05 232.684C141.451 232.964 141.759 233.337 141.974 233.804L143.906 237.752L146.384 232.264H147.294L143.71 240.174C143.514 240.64 143.22 241.004 142.828 241.266C142.436 241.518 141.964 241.644 141.414 241.644H140.714V241.14ZM156.214 241.644C155.626 241.644 155.061 241.527 154.52 241.294C153.988 241.051 153.414 240.608 152.798 239.964L150.544 237.612V241.504H148.724L148.71 234.084C148.71 233.608 148.645 233.258 148.514 233.034C148.383 232.8 148.122 232.684 147.73 232.684H147.59V232.264H149.27C149.597 232.264 149.849 232.32 150.026 232.432C150.213 232.544 150.343 232.73 150.418 232.992C150.502 233.253 150.544 233.617 150.544 234.084V236.744L152.966 233.734C153.311 233.286 153.68 232.931 154.072 232.67C154.473 232.399 154.931 232.264 155.444 232.264H156.424V232.754C155.845 232.754 155.346 232.828 154.926 232.978C154.515 233.118 154.161 233.374 153.862 233.748L151.776 236.324L155.01 239.684C155.355 240.066 155.743 240.402 156.172 240.692C156.611 240.972 156.965 241.13 157.236 241.168V241.504C156.956 241.597 156.615 241.644 156.214 241.644ZM165.921 241.644C165.333 241.644 164.768 241.527 164.227 241.294C163.695 241.051 163.121 240.608 162.505 239.964L160.251 237.612V241.504H158.431L158.417 234.084C158.417 233.608 158.352 233.258 158.221 233.034C158.09 232.8 157.829 232.684 157.437 232.684H157.297V232.264H158.977C159.304 232.264 159.556 232.32 159.733 232.432C159.92 232.544 160.05 232.73 160.125 232.992C160.209 233.253 160.251 233.617 160.251 234.084V236.744L162.673 233.734C163.018 233.286 163.387 232.931 163.779 232.67C164.18 232.399 164.638 232.264 165.151 232.264H166.131V232.754C165.552 232.754 165.053 232.828 164.633 232.978C164.222 233.118 163.868 233.374 163.569 233.748L161.483 236.324L164.717 239.684C165.062 240.066 165.45 240.402 165.879 240.692C166.318 240.972 166.672 241.13 166.943 241.168V241.504C166.663 241.597 166.322 241.644 165.921 241.644ZM175.586 241.56C174.998 241.56 174.466 241.438 173.99 241.196C173.514 240.944 173.127 240.458 172.828 239.74L172.506 238.956H168.782L167.634 241.504H166.906L171.036 232.264H171.666L174.802 239.74C175.157 240.608 175.642 241.074 176.258 241.14V241.49C176.09 241.536 175.866 241.56 175.586 241.56ZM169.076 238.326H172.24L170.7 234.672L169.076 238.326ZM176.587 241.714C176.279 241.714 175.999 241.672 175.747 241.588V241.154C176.204 241.06 176.591 240.813 176.909 240.412C177.226 240.01 177.478 239.31 177.665 238.312C177.861 237.304 177.959 235.894 177.959 234.084C177.959 233.608 177.893 233.258 177.763 233.034C177.632 232.8 177.371 232.684 176.979 232.684H176.839V232.264H184.329V241.504H182.509V232.894H179.485V234.084C179.485 236.884 179.228 238.858 178.715 240.006C178.211 241.144 177.501 241.714 176.587 241.714ZM186.691 234.084C186.691 233.608 186.625 233.258 186.495 233.034C186.364 232.8 186.103 232.684 185.711 232.684H185.571V232.264H191.745C192.538 232.264 192.935 232.637 192.935 233.384V234.574H192.515C192.515 233.995 192.365 233.57 192.067 233.3C191.777 233.029 191.343 232.894 190.765 232.894H188.511V236.394H192.151V237.024H188.511V240.874H190.905C191.437 240.874 191.88 240.757 192.235 240.524C192.589 240.281 192.883 239.866 193.117 239.278L193.495 239.418L193.089 240.524C192.967 240.86 192.823 241.107 192.655 241.266C192.487 241.424 192.225 241.504 191.871 241.504H186.691V234.084Z" fill="black"/>
<path d="M324.382 346.679C323.411 346.679 322.609 346.502 321.974 346.147C321.339 345.783 320.798 345.209 320.35 344.425L320.84 344.047C321.176 344.691 321.615 345.186 322.156 345.531C322.707 345.876 323.309 346.049 323.962 346.049C324.979 346.049 325.74 345.671 326.244 344.915C326.757 344.159 327.023 343.207 327.042 342.059H322.702V341.429H327.028C326.935 338.816 325.913 337.509 323.962 337.509C323.197 337.509 322.576 337.733 322.1 338.181C321.624 338.629 321.297 339.282 321.12 340.141H320.7C320.7 339.572 320.719 339.128 320.756 338.811C320.793 338.494 320.896 338.228 321.064 338.013C321.353 337.677 321.773 337.406 322.324 337.201C322.875 336.986 323.561 336.879 324.382 336.879C325.25 336.879 326.034 337.103 326.734 337.551C327.443 337.99 327.999 338.596 328.4 339.371C328.801 340.136 329.002 340.986 329.002 341.919C329.002 342.824 328.82 343.636 328.456 344.355C328.092 345.074 327.56 345.643 326.86 346.063C326.169 346.474 325.343 346.679 324.382 346.679ZM334.36 345.909C332.913 345.909 331.802 345.559 331.028 344.859C330.262 344.159 329.88 343.202 329.88 341.989C329.88 340.776 330.262 339.819 331.028 339.119C331.802 338.419 332.913 338.069 334.36 338.069C334.36 337.369 334.033 337.019 333.38 337.019H333.24V336.599H334.92C335.396 336.599 335.722 336.711 335.9 336.935C336.086 337.15 336.18 337.528 336.18 338.069C337.626 338.069 338.732 338.419 339.498 339.119C340.272 339.819 340.66 340.776 340.66 341.989C340.66 343.202 340.272 344.159 339.498 344.859C338.732 345.559 337.626 345.909 336.18 345.909V346.959H334.36V345.909ZM334.36 338.699C333.548 338.699 332.922 339.007 332.484 339.623C332.054 340.239 331.84 341.028 331.84 341.989C331.84 342.95 332.054 343.739 332.484 344.355C332.922 344.971 333.548 345.279 334.36 345.279V338.699ZM336.18 345.279C336.982 345.279 337.603 344.971 338.042 344.355C338.48 343.739 338.7 342.95 338.7 341.989C338.7 341.028 338.48 340.239 338.042 339.623C337.603 339.007 336.982 338.699 336.18 338.699V345.279ZM342.262 338.979C342.262 338.503 342.196 338.153 342.066 337.929C341.935 337.696 341.674 337.579 341.282 337.579H341.142V337.159H347.316C348.109 337.159 348.506 337.532 348.506 338.279V339.469H348.086C348.086 338.89 347.936 338.466 347.638 338.195C347.348 337.924 346.914 337.789 346.336 337.789H344.082V341.289H347.722V341.919H344.082V345.769H346.476C347.008 345.769 347.451 345.652 347.806 345.419C348.16 345.176 348.454 344.761 348.688 344.173L349.066 344.313L348.66 345.419C348.538 345.755 348.394 346.002 348.226 346.161C348.058 346.32 347.796 346.399 347.442 346.399H342.262V338.979ZM354.464 346.679C353.503 346.679 352.672 346.474 351.972 346.063C351.282 345.643 350.754 345.074 350.39 344.355C350.026 343.636 349.844 342.824 349.844 341.919C349.844 340.986 350.045 340.136 350.446 339.371C350.848 338.596 351.398 337.99 352.098 337.551C352.808 337.103 353.596 336.879 354.464 336.879C355.286 336.879 355.972 336.986 356.522 337.201C357.073 337.406 357.493 337.677 357.782 338.013C357.95 338.228 358.053 338.494 358.09 338.811C358.128 339.128 358.146 339.572 358.146 340.141H357.726C357.549 339.282 357.222 338.629 356.746 338.181C356.27 337.733 355.65 337.509 354.884 337.509C353.932 337.509 353.181 337.845 352.63 338.517C352.08 339.189 351.804 340.323 351.804 341.919C351.804 343.104 352.056 344.089 352.56 344.873C353.064 345.657 353.839 346.049 354.884 346.049C355.538 346.049 356.135 345.876 356.676 345.531C357.227 345.186 357.67 344.691 358.006 344.047L358.496 344.425C358.048 345.209 357.507 345.783 356.872 346.147C356.238 346.502 355.435 346.679 354.464 346.679Z" fill="black"/>
<g filter="url(#filter0_i_21_47)">
<path fill-rule="evenodd" clip-rule="evenodd" d="M126.54 6.43093C126.54 2.90932 129.383 0.0610962 132.897 0.0610962C136.411 0.0610962 139.253 2.90932 139.253 6.43093C139.253 10.2255 135.24 15.4579 133.596 17.4507C133.233 17.8875 132.57 17.8875 132.207 17.4507C130.554 15.4579 126.54 10.2255 126.54 6.43093ZM130.627 6.43093C130.627 7.68669 131.644 8.70587 132.897 8.70587C134.15 8.70587 135.167 7.68669 135.167 6.43093C135.167 5.17516 134.15 4.15599 132.897 4.15599C131.644 4.15599 130.627 5.17516 130.627 6.43093Z" fill="#222221"/>
</g>
<g filter="url(#filter1_i_21_47)">
<path fill-rule="evenodd" clip-rule="evenodd" d="M327.54 105.431C327.54 101.909 330.383 99.0611 333.897 99.0611C337.411 99.0611 340.253 101.909 340.253 105.431C340.253 109.226 336.24 114.458 334.596 116.451C334.233 116.888 333.57 116.888 333.207 116.451C331.554 114.458 327.54 109.226 327.54 105.431ZM331.627 105.431C331.627 106.687 332.644 107.706 333.897 107.706C335.15 107.706 336.167 106.687 336.167 105.431C336.167 104.175 335.15 103.156 333.897 103.156C332.644 103.156 331.627 104.175 331.627 105.431Z" fill="#222221"/>
</g>
<g filter="url(#filter2_i_21_47)">
<path fill-rule="evenodd" clip-rule="evenodd" d="M101.54 162.431C101.54 158.909 104.383 156.061 107.897 156.061C111.411 156.061 114.253 158.909 114.253 162.431C114.253 166.226 110.24 171.458 108.596 173.451C108.233 173.888 107.57 173.888 107.207 173.451C105.554 171.458 101.54 166.226 101.54 162.431ZM105.627 162.431C105.627 163.687 106.644 164.706 107.897 164.706C109.15 164.706 110.167 163.687 110.167 162.431C110.167 161.175 109.15 160.156 107.897 160.156C106.644 160.156 105.627 161.175 105.627 162.431Z" fill="#222221"/>
</g>
<g filter="url(#filter3_i_21_47)">
<path fill-rule="evenodd" clip-rule="evenodd" d="M301.54 338.431C301.54 334.909 304.383 332.061 307.897 332.061C311.411 332.061 314.253 334.909 314.253 338.431C314.253 342.226 310.24 347.458 308.596 349.451C308.233 349.888 307.57 349.888 307.207 349.451C305.554 347.458 301.54 342.226 301.54 338.431ZM305.627 338.431C305.627 339.687 306.644 340.706 307.897 340.706C309.15 340.706 310.167 339.687 310.167 338.431C310.167 337.175 309.15 336.156 307.897 336.156C306.644 336.156 305.627 337.175 305.627 338.431Z" fill="#222221"/>
</g>
<g filter="url(#filter4_i_21_47)">
<path fill-rule="evenodd" clip-rule="evenodd" d="M90 233.37C90 229.848 92.8422 227 96.3565 227C99.8707 227 102.713 229.848 102.713 233.37C102.713 237.164 98.6993 242.397 97.0557 244.39C96.6924 244.826 96.0296 244.826 95.6663 244.39C94.0136 242.397 90 237.164 90 233.37ZM94.0863 233.37C94.0863 234.626 95.1033 235.645 96.3565 235.645C97.6096 235.645 98.6266 234.626 98.6266 233.37C98.6266 232.114 97.6096 231.095 96.3565 231.095C95.1033 231.095 94.0863 232.114 94.0863 233.37Z" fill="#222221"/>
</g>
<defs>
<filter id="filter0_i_21_47" x="126.54" y="0.0610962" width="12.7129" height="21.7172" filterUnits="userSpaceOnUse" color-interpolation-filters="sRGB">
<feFlood flood-opacity="0" result="BackgroundImageFix"/>
<feBlend mode="normal" in="SourceGraphic" in2="BackgroundImageFix" result="shape"/>
<feColorMatrix in="SourceAlpha" type="matrix" values="0 0 0 0 0 0 0 0 0 0 0 0 0 0 0 0 0 0 127 0" result="hardAlpha"/>
<feOffset dy="4"/>
<feGaussianBlur stdDeviation="2"/>
<feComposite in2="hardAlpha" operator="arithmetic" k2="-1" k3="1"/>
<feColorMatrix type="matrix" values="0 0 0 0 0 0 0 0 0 0 0 0 0 0 0 0 0 0 0.25 0"/>
<feBlend mode="normal" in2="shape" result="effect1_innerShadow_21_47"/>
</filter>
<filter id="filter1_i_21_47" x="327.54" y="99.0611" width="12.7129" height="21.7172" filterUnits="userSpaceOnUse" color-interpolation-filters="sRGB">
<feFlood flood-opacity="0" result="BackgroundImageFix"/>
<feBlend mode="normal" in="SourceGraphic" in2="BackgroundImageFix" result="shape"/>
<feColorMatrix in="SourceAlpha" type="matrix" values="0 0 0 0 0 0 0 0 0 0 0 0 0 0 0 0 0 0 127 0" result="hardAlpha"/>
<feOffset dy="4"/>
<feGaussianBlur stdDeviation="2"/>
<feComposite in2="hardAlpha" operator="arithmetic" k2="-1" k3="1"/>
<feColorMatrix type="matrix" values="0 0 0 0 0 0 0 0 0 0 0 0 0 0 0 0 0 0 0.25 0"/>
<feBlend mode="normal" in2="shape" result="effect1_innerShadow_21_47"/>
</filter>
<filter id="filter2_i_21_47" x="101.54" y="156.061" width="12.7129" height="21.7172" filterUnits="userSpaceOnUse" color-interpolation-filters="sRGB">
<feFlood flood-opacity="0" result="BackgroundImageFix"/>
<feBlend mode="normal" in="SourceGraphic" in2="BackgroundImageFix" result="shape"/>
<feColorMatrix in="SourceAlpha" type="matrix" values="0 0 0 0 0 0 0 0 0 0 0 0 0 0 0 0 0 0 127 0" result="hardAlpha"/>
<feOffset dy="4"/>
<feGaussianBlur stdDeviation="2"/>
<feComposite in2="hardAlpha" operator="arithmetic" k2="-1" k3="1"/>
<feColorMatrix type="matrix" values="0 0 0 0 0 0 0 0 0 0 0 0 0 0 0 0 0 0 0.25 0"/>
<feBlend mode="normal" in2="shape" result="effect1_innerShadow_21_47"/>
</filter>
<filter id="filter3_i_21_47" x="301.54" y="332.061" width="12.7129" height="21.7172" filterUnits="userSpaceOnUse" color-interpolation-filters="sRGB">
<feFlood flood-opacity="0" result="BackgroundImageFix"/>
<feBlend mode="normal" in="SourceGraphic" in2="BackgroundImageFix" result="shape"/>
<feColorMatrix in="SourceAlpha" type="matrix" values="0 0 0 0 0 0 0 0 0 0 0 0 0 0 0 0 0 0 127 0" result="hardAlpha"/>
<feOffset dy="4"/>
<feGaussianBlur stdDeviation="2"/>
<feComposite in2="hardAlpha" operator="arithmetic" k2="-1" k3="1"/>
<feColorMatrix type="matrix" values="0 0 0 0 0 0 0 0 0 0 0 0 0 0 0 0 0 0 0.25 0"/>
<feBlend mode="normal" in2="shape" result="effect1_innerShadow_21_47"/>
</filter>
<filter id="filter4_i_21_47" x="90" y="227" width="12.7129" height="21.7172" filterUnits="userSpaceOnUse" color-interpolation-filters="sRGB">
<feFlood flood-opacity="0" result="BackgroundImageFix"/>
<feBlend mode="normal" in="SourceGraphic" in2="BackgroundImageFix" result="shape"/>
<feColorMatrix in="SourceAlpha" type="matrix" values="0 0 0 0 0 0 0 0 0 0 0 0 0 0 0 0 0 0 127 0" result="hardAlpha"/>
<feOffset dy="4"/>
<feGaussianBlur stdDeviation="2"/>
<feComposite in2="hardAlpha" operator="arithmetic" k2="-1" k3="1"/>
<feColorMatrix type="matrix" values="0 0 0 0 0 0 0 0 0 0 0 0 0 0 0 0 0 0 0.25 0"/>
<feBlend mode="normal" in2="shape" result="effect1_innerShadow_21_47"/>
</filter>
</defs>
</svg>
